HIERARCHY
ROOT Hips
{
	OFFSET 0.000000 0.000000 0.000000
	CHANNELS 6 Xposition Yposition Zposition Zrotation Yrotation Xrotation 
	JOINT LowerBack
	{
		OFFSET 0.000000 0.000000 0.000000
		CHANNELS 3 Zrotation Yrotation Xrotation
		JOINT Spine
		{
			OFFSET 0.028270 2.035590 -0.193380
			CHANNELS 3 Zrotation Yrotation Xrotation
			JOINT Spine1
			{
				OFFSET 0.056720 2.048850 -0.042750
				CHANNELS 3 Zrotation Yrotation Xrotation
				JOINT Neck
				{
					OFFSET 0.000000 0.000000 0.000000
					CHANNELS 3 Zrotation Yrotation Xrotation
					JOINT Neck1
					{
						OFFSET -0.054170 1.746240 0.172020
						CHANNELS 3 Zrotation Yrotation Xrotation
						JOINT Head
						{
							OFFSET 0.104070 1.761360 -0.123970
							CHANNELS 3 Zrotation Yrotation Xrotation
							End Site
							{
								OFFSET 0.000000 0.000000 0.000000
							}
						}
					}
				}
				JOINT LeftShoulder
				{
					OFFSET 0.000000 0.000000 0.000000
					CHANNELS 3 Zrotation Yrotation Xrotation
					JOINT LeftArm
					{
						OFFSET 3.362410 1.200890 -0.311210
						CHANNELS 3 Zrotation Yrotation Xrotation
						JOINT LeftForeArm
						{
							OFFSET 4.983000 -0.000000 -0.000000
							CHANNELS 3 Zrotation Yrotation Xrotation
							JOINT LeftHand
							{
								OFFSET 3.483560 -0.000000 -0.000000
								CHANNELS 3 Zrotation Yrotation Xrotation
								JOINT LeftFingerBase
								{
									OFFSET 0.000000 0.000000 0.000000
									CHANNELS 3 Zrotation Yrotation Xrotation
									JOINT LeftHandIndex1
									{
										OFFSET 0.715260 -0.000000 -0.000000
										CHANNELS 3 Zrotation Yrotation Xrotation
										End Site
										{
											OFFSET 0.000000 0.000000 0.000000
										}
									}
								}
								JOINT LThumb
								{
									OFFSET 0.000000 0.000000 0.000000
									CHANNELS 3 Zrotation Yrotation Xrotation
									End Site
									{
										OFFSET 0.000000 0.000000 0.000000
									}
								}
							}
						}
					}
				}
				JOINT RightShoulder
				{
					OFFSET 0.000000 0.000000 0.000000
					CHANNELS 3 Zrotation Yrotation Xrotation
					JOINT RightArm
					{
						OFFSET -3.136600 1.374050 -0.404650
						CHANNELS 3 Zrotation Yrotation Xrotation
						JOINT RightForeArm
						{
							OFFSET -5.241900 -0.000000 -0.000000
							CHANNELS 3 Zrotation Yrotation Xrotation
							JOINT RightHand
							{
								OFFSET -3.444170 -0.000000 -0.000000
								CHANNELS 3 Zrotation Yrotation Xrotation
								JOINT RightFingerBase
								{
									OFFSET 0.000000 0.000000 0.000000
									CHANNELS 3 Zrotation Yrotation Xrotation
									JOINT RightHandIndex1
									{
										OFFSET -0.622530 -0.000000 -0.000000
										CHANNELS 3 Zrotation Yrotation Xrotation
										End Site
										{
											OFFSET 0.000000 0.000000 0.000000
										}
									}
								}
								JOINT RThumb
								{
									OFFSET 0.000000 0.000000 0.000000
									CHANNELS 3 Zrotation Yrotation Xrotation
									End Site
									{
										OFFSET 0.000000 0.000000 0.000000
									}
								}
							}
						}
					}
				}
			}
		}
	}
}
}
MOTION
Frames: 9
Frame Time: 0.008333
-12.080211 16.992518 0.121793 123.568589 87.176934 145.563843 5.625735 -2.952167 -6.014367 0.545238 -3.611082 -3.983955 -7.027176 -3.587644 0.169468 6.702733 -9.925641 -7.163181 -4.110649 -0.312219 0.105178 0.000000 0.000000 0.000000 1.119938 6.757963 0.465935 -55.382724 -21.747311 12.788483 -179.059633 -77.653951 179.931454 8.298808 -3.405765 -0.302227 -0.312590 0.676032 0.000000 0.000000 0.000000 0.000000 0.000000 0.000000 0.000000 11.406511 -6.712090 0.426427 69.187515 1.867193 -10.630313 0.418822 73.444576 -0.043959 -10.972546 10.405287 -1.047916 0.121335 -0.366498 0.000000 0.000000 0.000000 0.000000 0.000000 0.000000 0.000000 
-11.906958 16.959606 0.150580 122.172850 86.982844 144.088937 5.719710 -2.945529 -5.979554 0.569074 -3.608770 -3.976384 -6.980148 -3.585275 0.163421 6.470256 -9.784068 -7.197826 -4.190367 -0.317478 0.090078 0.000000 0.000000 0.000000 1.099164 6.844847 0.423642 -55.627817 -21.890932 12.634701 -179.007699 -76.963352 179.929808 8.417473 -3.665138 -0.327627 -0.318695 0.691735 0.000000 0.000000 0.000000 0.000000 0.000000 0.000000 0.000000 11.560414 -6.627390 0.503237 68.949622 1.920637 -10.850447 0.445969 72.133857 -0.047328 -12.072632 10.266486 -1.137738 0.131477 -0.356900 0.000000 0.000000 0.000000 0.000000 0.000000 0.000000 0.000000 
-11.737728 16.933964 0.176053 123.151967 86.805329 144.954931 5.889707 -2.946780 -5.902123 0.609461 -3.618985 -3.961209 -6.925509 -3.595155 0.155314 6.241685 -9.638951 -7.212939 -4.268630 -0.322731 0.079993 0.000000 0.000000 0.000000 1.088014 6.922272 0.376565 -56.050593 -22.017397 12.506996 -178.967538 -76.416944 179.927897 8.557029 -3.872819 -0.350329 -0.324724 0.705420 0.000000 0.000000 0.000000 0.000000 0.000000 0.000000 0.000000 11.708539 -6.556424 0.571935 68.691488 2.042904 -11.025803 0.467396 70.824338 -0.050993 -13.245593 10.016187 -1.218172 0.141673 -0.346808 0.000000 0.000000 0.000000 0.000000 0.000000 0.000000 0.000000 
-11.572371 16.916524 0.197872 126.491430 86.654378 148.159378 6.162444 -2.951823 -5.795651 0.671541 -3.640527 -3.941288 -6.864481 -3.615975 0.146181 6.014212 -9.497639 -7.209169 -4.343851 -0.327876 0.074995 0.000000 0.000000 0.000000 1.075973 6.988754 0.325758 -56.640446 -22.120395 12.416136 -178.938689 -76.010503 179.925841 8.706790 -4.030147 -0.369831 -0.330466 0.716943 0.000000 0.000000 0.000000 0.000000 0.000000 0.000000 0.000000 11.839302 -6.503261 0.631822 68.428200 2.221528 -11.168689 0.482019 69.552267 -0.054872 -14.455389 9.637464 -1.280218 0.151690 -0.336413 0.000000 0.000000 0.000000 0.000000 0.000000 0.000000 0.000000 
-11.410535 16.907857 0.216093 131.843296 86.535294 153.366856 6.549997 -2.950507 -5.672707 0.756455 -3.664856 -3.919263 -6.799644 -3.639051 0.136746 5.786987 -9.366737 -7.188581 -4.414677 -0.332809 0.074732 0.000000 0.000000 0.000000 1.054216 7.046232 0.271534 -57.374382 -22.191737 12.368513 -178.920418 -75.734767 179.923830 8.852924 -4.141603 -0.385735 -0.335566 0.726216 -0.000000 0.000000 0.000000 0.000000 0.000000 0.000000 0.000000 11.945086 -6.466603 0.682838 68.177056 2.440950 -11.294116 0.489615 68.356133 -0.058872 -15.658829 9.122615 -1.314372 0.161350 -0.325976 0.000000 0.000000 0.000000 0.000000 0.000000 0.000000 0.000000 
-11.251807 16.907945 0.231204 138.503702 86.449619 159.886189 7.037419 -2.929106 -5.543928 0.859429 -3.677431 -3.897107 -6.733875 -3.649848 0.127841 5.560924 -9.252121 -7.154612 -4.479822 -0.337418 0.078436 0.000000 0.000000 0.000000 1.017813 7.100122 0.213293 -58.218288 -22.223005 12.366868 -178.911706 -75.574288 179.922054 8.980081 -4.213122 -0.397746 -0.339576 0.733197 -0.000000 0.000000 0.000000 0.000000 0.000000 0.000000 0.000000 12.021554 -6.440968 0.725299 67.957089 2.683737 -11.417562 0.490883 67.273039 -0.062892 -16.809271 8.477392 -1.313730 0.170517 -0.315804 0.000000 0.000000 0.000000 0.000000 0.000000 0.000000 0.000000 
-11.095670 16.916360 0.243869 145.603836 86.395879 166.856357 7.582068 -2.877266 -5.414283 0.970781 -3.664414 -3.875233 -6.669054 -3.634812 0.120648 5.336555 -9.160919 -7.111848 -4.537862 -0.341559 0.084925 0.000000 0.000000 0.000000 0.962527 7.155844 0.150838 -59.130360 -22.207314 12.409384 -178.911481 -75.513232 179.920721 9.072530 -4.251512 -0.405271 -0.342038 0.737871 -0.000000 0.000000 0.000000 0.000000 0.000000 0.000000 0.000000 12.064807 -6.422924 0.759454 67.788558 2.936977 -11.552827 0.487138 66.331708 -0.066831 -17.861254 7.723332 -1.275289 0.179060 -0.306233 0.000000 0.000000 0.000000 0.000000 0.000000 0.000000 0.000000 
-10.941649 16.932243 0.255121 152.158649 86.348547 173.295645 8.108978 -2.799531 -5.289105 1.076246 -3.624084 -3.853733 -6.606100 -3.592816 0.116101 5.116803 -9.095905 -7.063401 -4.588318 -0.345194 0.093395 0.000000 0.000000 0.000000 0.891601 7.212712 0.085597 -60.065589 -22.139565 12.492953 -178.917642 -75.532243 179.919996 9.116077 -4.263353 -0.408417 -0.342646 0.740354 -0.000000 0.000000 0.000000 0.000000 0.000000 0.000000 0.000000 12.077961 -6.411462 0.784270 67.688937 3.182926 -11.713116 0.479389 65.558051 -0.070585 -18.776274 6.894260 -1.201245 0.186784 -0.297525 0.000000 0.000000 0.000000 0.000000 0.000000 0.000000 0.000000 
-10.789205 16.954563 0.265891 157.574659 86.272969 178.609535 8.564575 -2.711187 -5.174220 1.166867 -3.567439 -3.832850 -6.546029 -3.535204 0.115282 4.903536 -9.059378 -7.011937 -4.631041 -0.348323 0.103159 0.000000 0.000000 0.000000 0.807309 7.265474 0.021551 -60.979242 -22.018113 12.612827 -178.927948 -75.618398 179.920048 9.099045 -4.254568 -0.406885 -0.341286 0.740820 -0.000000 0.000000 0.000000 0.000000 0.000000 0.000000 0.000000 12.064149 -6.411843 0.797812 67.670562 3.408535 -11.906868 0.468411 64.966969 -0.074053 -19.525232 6.035752 -1.099097 0.193466 -0.289916 0.000000 0.000000 0.000000 0.000000 0.000000 0.000000 0.000000 
